# xmcd
#
# Track frame offsets:
#	150
#	10543
#	30375
#	43648
#	57891
#	70205
#	86355
#	104214
#	113161
#	120447
#	136731
#	148488
#	156175
#	171926
#	192134
#	203871
#	209560
#	220993
#	230951
#
# Disc length: 3264 seconds
#
# Revision: 1
# Processed by: cddbd v1.5.2PL0 Copyright (c) Steve Scherf et al.
# Submitted via: audiograbber 1.83.01
#
DISCID=180cbe13
DTITLE=Various Artist - Oh Brother, Where Art Thou promo cd
DYEAR=2000
DGENRE=
TTITLE0=Harry McClintock - Big Rock Candy Mountain
TTITLE1=Norman Blake - You Are My Sunshine
TTITLE2=Alison Krauss - Down To The River To Pray
TTITLE3=Soggy Bottom Boys Feat. Dan Tyminski - I Am A Man Of Constant Sorrow (R
TTITLE3=adio Station Version)
TTITLE4=Chris Thomas King - Hard Time Killing Floor Blues
TTITLE5=The Whites - Keep On The Sunny Side
TTITLE6=Gillian Welch - Alison Krauss - I'll Fly Away
TTITLE7=G. Welch* - A. Krauss* - Emmylou Harris - Didn't Leave Nobody But The B
TTITLE7=aby
TTITLE8=Sarah*, Hannah* and Leah Peasall - In The Highways
TTITLE9=Soggy Bottom Boys Feat. Tim Blake Nelson - In The Jailhouse Now
TTITLE10=The Fairfield Four - The Lord Will Make A Way
TTITLE11=Van Dyke Parks - Big Rock Candy Mountain
TTITLE12=Alan O'Bryant - You Are My Sunshine
TTITLE13=Norman Blake - I Am A Man Of Constant Sorrow (Instrumental)
TTITLE14=The Cox Family - Keep On The Sunny Side
TTITLE15=Colin Linden - Hard Time Killing Floor Blues
TTITLE16=The Kossoy Sisters With Erik Darling - I'll Fly Away
TTITLE17=The Cox Family - In The Highways
TTITLE18=Harley Allen - In The Jailhouse Now
EXTD=
EXTT0=
EXTT1=
EXTT2=
EXTT3=
EXTT4=
EXTT5=
EXTT6=
EXTT7=
EXTT8=
EXTT9=
EXTT10=
EXTT11=
EXTT12=
EXTT13=
EXTT14=
EXTT15=
EXTT16=
EXTT17=
EXTT18=
PLAYORDER=
